<svg width="600" height="600" xmlns="http://www.w3.org/2000/svg">
 <g>
  <title>Layer 1</title>
  <path fill="#ffffff" stroke="#000" opacity="undefined" d="m150,225c0,-13.58447 11.41553,-25 25,-25l250,0c13.58447,0 25,11.41553 25,25l0,150c0,13.58447 -11.41553,25 -25,25l-250,0c-13.58447,0 -25,-11.41553 -25,-25l0,-150z" id="svg_1" stroke-width="0"/>
  <path fill="#000000" stroke="#000" opacity="undefined" d="m225,300c0,-5.43379 4.56621,-10 10,-10l130,0c5.43379,0 10,4.56621 10,10l0,0c0,5.43379 -4.56621,10 -10,10l-130,0c-5.43379,0 -10,-4.56621 -10,-10l0,0z" id="svg_2"/>
 </g>

</svg>